# xmcd CD database file
#
# Track frame offsets:
#	183
#	16320
#	38890
#	59040
#	76040
#	92505
#	122908
#	145290
#	163733
#	183365
#	203695
#	224650
#
# Disc length: 3250 seconds
#
# Revision: 0
# Processed by: cddbd v1.5.2PL0 Copyright (c) Steve Scherf et al.
# Submitted via: CDex 1.51
#
DISCID=a80cb00c
DTITLE=Elmo Hope - Play His Original Compositions
DYEAR=1992
DGENRE=Jazz
TTITLE0=Hot Sauce
TTITLE1=When The Groove Is Low
TTITLE2=De-Dah	
TTITLE3=Abdullah
TTITLE4=Freffie
TTITLE5=Stars Over Marrakesh
TTITLE6=Chips
TTITLE7=Happy Hour
TTITLE8=Moe's Bluff
TTITLE9=Moe Is On
TTITLE10=Maybe So
TTITLE11=Crazy
EXTD=YEAR: 1992
EXTT0=
EXTT1=
EXTT2=
EXTT3=
EXTT4=
EXTT5=
EXTT6=
EXTT7=
EXTT8=
EXTT9=
EXTT10=
EXTT11=
PLAYORDER=
